<?xml version="1.0" standalone="no"?>
<!DOCTYPE svg PUBLIC "-//W3C//DTD SVG 20010904//EN"
 "http://www.w3.org/TR/2001/REC-SVG-20010904/DTD/svg10.dtd">
<svg version="1.0" xmlns="http://www.w3.org/2000/svg"
 width="300.000000pt" height="300.000000pt" viewBox="0 0 300.000000 300.000000"
 preserveAspectRatio="xMidYMid meet">
<metadata>
Created by potrace 1.10, written by Peter Selinger 2001-2011
</metadata>
<g transform="translate(0.000000,300.000000) scale(0.100000,-0.100000)"
fill="#808000" stroke="none">
<path d="M815 2510 c-55 -22 -67 -51 -105 -257 l-36 -198 -104 -16 c-139 -22
-143 -27 -138 -166 3 -101 4 -103 35 -135 30 -30 39 -33 108 -36 l74 -4 3
-447 c3 -440 3 -447 26 -503 72 -179 213 -268 422 -268 138 0 289 46 388 119
59 44 57 68 -18 191 -34 54 -72 105 -85 114 -35 23 -77 20 -140 -11 -44 -22
-60 -25 -82 -17 -51 18 -53 29 -53 442 l0 382 174 0 c145 0 177 3 190 16 13
13 16 43 16 169 0 142 -2 155 -19 165 -12 6 -92 10 -190 10 l-171 0 0 213 c0
195 -2 215 -18 230 -15 14 -40 17 -138 16 -65 0 -128 -4 -139 -9z m237 -277
l3 -228 193 -3 192 -2 0 -120 0 -120 -192 -2 -193 -3 -3 -390 c-3 -436 1 -479
49 -520 39 -32 112 -34 169 -5 71 36 81 31 149 -77 l61 -98 -23 -19 c-33 -29
-134 -73 -206 -92 -93 -23 -268 -16 -334 14 -85 38 -150 106 -184 193 -16 39
-18 99 -23 519 l-5 475 -90 3 c-120 4 -125 9 -125 123 l0 87 68 12 c37 6 88
14 115 17 38 5 48 10 52 27 3 12 21 106 40 210 22 120 41 196 52 208 14 15 33
18 124 18 l109 0 2 -227z"/>
<path d="M1782 2455 c-73 -13 -198 -66 -239 -101 l-23 -19 59 -94 c32 -52 66
-98 75 -103 11 -6 33 -1 69 17 107 50 196 22 217 -70 5 -22 10 -219 10 -437
l0 -398 -192 -2 -193 -3 -3 -127 -3 -128 196 0 195 0 0 -231 0 -231 111 4 c98
3 113 5 128 24 10 13 31 96 54 225 21 112 43 206 48 210 6 3 49 12 97 18 148
22 134 10 130 112 -4 117 -10 123 -128 127 l-90 4 0 434 c0 458 -3 501 -47
589 -48 98 -125 156 -239 180 -83 18 -135 18 -232 0z"/>
</g>
</svg>
